<?xml version="1.0" standalone="no"?>
<!DOCTYPE svg PUBLIC "-//W3C//DTD SVG 20010904//EN"
 "http://www.w3.org/TR/2001/REC-SVG-20010904/DTD/svg10.dtd">
<svg version="1.0" xmlns="http://www.w3.org/2000/svg"
 width="100.000000pt" height="100.000000pt" viewBox="0 0 100.000000 100.000000"
 preserveAspectRatio="xMidYMid meet">
<metadata>
Created by potrace 1.14, written by Peter Selinger 2001-2017
</metadata>
<g transform="translate(0.000000,100.000000) scale(0.100000,-0.100000)"
fill="#000000" stroke="none">
<path d="M206 875 c-18 -19 -18 -19 -17 -100 1 -33 1 -80 0 -105 -1 -50 -1
-122 1 -160 1 -21 1 -65 1 -202 0 -13 -1 -56 -2 -97 -1 -62 2 -77 17 -88 21
-15 414 -19 414 -4 0 18 -35 21 -215 21 -142 0 -184 3 -188 13 -9 25 0 141 12
145 16 5 14 29 -3 35 -19 7 -16 127 3 151 12 14 12 19 -2 34 -19 21 -18 143 1
150 15 5 16 29 0 34 -13 5 -21 98 -11 136 l5 22 279 0 c153 0 280 -3 280 -7 9
-45 4 -131 -8 -145 -13 -14 -13 -19 0 -40 18 -29 17 -129 -1 -151 -12 -14 -11
-21 8 -47 25 -35 44 -32 30 5 -5 14 -6 35 -2 48 4 12 6 38 6 57 -3 77 -4 137
-3 180 3 77 0 98 -16 114 -24 23 -566 24 -589 1z"/>
<path d="M563 788 c2 -7 19 -13 37 -13 18 0 35 6 38 13 2 8 -9 12 -38 12 -29
0 -40 -4 -37 -12z"/>
<path d="M260 690 c0 -5 7 -10 16 -10 8 0 12 5 9 10 -3 6 -10 10 -16 10 -5 0
-9 -4 -9 -10z"/>
<path d="M315 690 c-3 -5 1 -10 9 -10 9 0 16 5 16 10 0 6 -4 10 -9 10 -6 0
-13 -4 -16 -10z"/>
<path d="M362 691 c2 -7 7 -12 11 -12 12 1 9 15 -3 20 -7 2 -11 -2 -8 -8z"/>
<path d="M416 691 c-4 -5 -2 -12 3 -15 5 -4 12 -2 15 3 4 5 2 12 -3 15 -5 4
-12 2 -15 -3z"/>
<path d="M465 691 c-6 -11 9 -23 19 -14 9 9 7 23 -3 23 -6 0 -12 -4 -16 -9z"/>
<path d="M515 690 c-3 -5 1 -10 10 -10 9 0 13 5 10 10 -3 6 -8 10 -10 10 -2 0
-7 -4 -10 -10z"/>
<path d="M566 691 c-4 -5 -2 -12 3 -15 5 -4 12 -2 15 3 4 5 2 12 -3 15 -5 4
-12 2 -15 -3z"/>
<path d="M616 685 c4 -8 10 -12 15 -9 14 8 10 24 -6 24 -9 0 -12 -6 -9 -15z"/>
<path d="M665 691 c-6 -11 9 -23 19 -14 9 9 7 23 -3 23 -6 0 -12 -4 -16 -9z"/>
<path d="M716 691 c-4 -5 -2 -12 3 -15 5 -4 12 -2 15 3 4 5 2 12 -3 15 -5 4
-12 2 -15 -3z"/>
<path d="M578 613 c-21 -5 -24 -23 -5 -24 6 0 19 -2 28 -4 17 -3 47 11 39 18
-10 9 -45 14 -62 10z"/>
<path d="M260 500 c0 -5 7 -10 15 -10 8 0 15 5 15 10 0 6 -7 10 -15 10 -8 0
-15 -4 -15 -10z"/>
<path d="M310 500 c0 -5 7 -10 15 -10 8 0 15 5 15 10 0 6 -7 10 -15 10 -8 0
-15 -4 -15 -10z"/>
<path d="M365 500 c3 -5 10 -10 16 -10 5 0 9 5 9 10 0 6 -7 10 -16 10 -8 0
-12 -4 -9 -10z"/>
<path d="M410 500 c0 -5 7 -10 15 -10 8 0 15 5 15 10 0 6 -7 10 -15 10 -8 0
-15 -4 -15 -10z"/>
<path d="M460 500 c0 -5 7 -10 15 -10 8 0 15 5 15 10 0 6 -7 10 -15 10 -8 0
-15 -4 -15 -10z"/>
<path d="M510 500 c0 -5 7 -10 15 -10 8 0 15 5 15 10 0 6 -7 10 -15 10 -8 0
-15 -4 -15 -10z"/>
<path d="M560 500 c0 -5 7 -10 15 -10 8 0 15 5 15 10 0 6 -7 10 -15 10 -8 0
-15 -4 -15 -10z"/>
<path d="M610 500 c0 -5 7 -10 15 -10 8 0 15 5 15 10 0 6 -7 10 -15 10 -8 0
-15 -4 -15 -10z"/>
<path d="M660 500 c0 -5 4 -10 9 -10 6 0 13 5 16 10 3 6 -1 10 -9 10 -9 0 -16
-4 -16 -10z"/>
<path d="M710 500 c0 -5 7 -10 15 -10 8 0 15 5 15 10 0 6 -7 10 -15 10 -8 0
-15 -4 -15 -10z"/>
<path d="M565 421 c-3 -2 -5 -8 -5 -13 0 -13 27 -9 40 6 9 12 8 15 -10 13 -11
-1 -23 -3 -25 -6z"/>
<path d="M689 421 c-65 -20 -105 -67 -113 -133 -4 -36 25 -118 43 -118 12 0 9
15 -8 57 -29 71 18 155 95 168 62 10 72 16 49 25 -24 10 -33 10 -66 1z"/>
<path d="M764 381 c-32 -19 -54 -64 -54 -107 0 -13 -4 -24 -10 -24 -5 0 -19
-9 -30 -20 -17 -17 -20 -33 -20 -105 0 -123 3 -125 173 -125 176 0 177 1 177
121 0 125 -5 129 -150 129 l-110 0 0 34 c0 41 25 73 66 85 33 9 54 2 92 -32
l22 -20 0 21 c0 28 -53 62 -95 62 -16 0 -44 -9 -61 -19z m201 -174 c13 -18 9
-157 -5 -171 -14 -14 -248 -15 -267 -1 -11 8 -16 31 -17 78 -2 113 -2 113 173
110 79 -1 108 -6 116 -16z"/>
<path d="M817 172 c-16 -3 -17 -10 -12 -45 12 -70 27 -73 39 -7 7 41 -2 57
-27 52z"/>
<path d="M266 321 c-4 -5 -2 -12 3 -15 5 -4 12 -2 15 3 4 5 2 12 -3 15 -5 4
-12 2 -15 -3z"/>
<path d="M316 323 c-11 -11 -6 -23 9 -23 8 0 15 4 15 9 0 13 -16 22 -24 14z"/>
<path d="M366 321 c-4 -5 -2 -12 3 -15 5 -4 12 -2 15 3 4 5 2 12 -3 15 -5 4
-12 2 -15 -3z"/>
<path d="M416 321 c-4 -5 -2 -12 3 -15 5 -4 12 -2 15 3 4 5 2 12 -3 15 -5 4
-12 2 -15 -3z"/>
<path d="M516 321 c-4 -5 -2 -12 3 -15 5 -4 12 -2 15 3 4 5 2 12 -3 15 -5 4
-12 2 -15 -3z"/>
<path d="M460 310 c0 -5 4 -10 9 -10 6 0 13 5 16 10 3 6 -1 10 -9 10 -9 0 -16
-4 -16 -10z"/>
</g>
</svg>
